<?xml version="1.0" encoding="UTF-8" standalone="no"?>
<!-- Created with Inkscape (http://www.inkscape.org/) -->

<svg
   xmlns:dc="http://purl.org/dc/elements/1.1/"
   xmlns:cc="http://creativecommons.org/ns#"
   xmlns:rdf="http://www.w3.org/1999/02/22-rdf-syntax-ns#"
   xmlns:svg="http://www.w3.org/2000/svg"
   xmlns="http://www.w3.org/2000/svg"
   xmlns:sodipodi="http://sodipodi.sourceforge.net/DTD/sodipodi-0.dtd"
   xmlns:inkscape="http://www.inkscape.org/namespaces/inkscape"
   width="512"
   height="512"
   id="svg2"
   version="1.1"
   inkscape:version="0.48.4 r9939"
   sodipodi:docname="New document 1">
  <defs
     id="defs4" />
  <sodipodi:namedview
     id="base"
     pagecolor="#000000"
     bordercolor="#666666"
     borderopacity="1.0"
     inkscape:pageopacity="0"
     inkscape:pageshadow="2"
     inkscape:zoom="0.98994949"
     inkscape:cx="314.16265"
     inkscape:cy="331.78761"
     inkscape:document-units="px"
     inkscape:current-layer="layer1"
     showgrid="false"
     inkscape:window-width="1311"
     inkscape:window-height="960"
     inkscape:window-x="3037"
     inkscape:window-y="1429"
     inkscape:window-maximized="0" />
  <metadata
     id="metadata7">
    <rdf:RDF>
      <cc:Work
         rdf:about="">
        <dc:format>image/svg+xml</dc:format>
        <dc:type
           rdf:resource="http://purl.org/dc/dcmitype/StillImage" />
        <dc:title></dc:title>
      </cc:Work>
    </rdf:RDF>
  </metadata>
  <g
     inkscape:label="Layer 1"
     inkscape:groupmode="layer"
     id="layer1"
     transform="translate(0,-540.36218)">
    <g
       id="g3148"
       transform="matrix(1.0587964,0,0,1.0587964,-10.777684,-44.670797)">
      <path
         style="font-size:320.10992432px;font-style:normal;font-variant:normal;font-weight:normal;font-stretch:normal;line-height:125%;letter-spacing:-55.78796005px;word-spacing:0px;fill:#ffffff;fill-opacity:1;stroke:none;font-family:Droid Sans;-inkscape-font-specification:Droid Sans"
         d="M 105.90625,560.3125 C 74.364882,640.35935 42.939453,720.46899 11.5,800.5625 c 17.333333,0 34.666667,0 52,0 8.771963,-22.77277 17.507708,-45.55955 26.25,-68.34375 24.82292,0 49.64583,0 74.46875,0 8.63429,22.78561 17.17298,45.60775 25.9375,68.34375 17.44792,0 34.89583,0 52.34375,0 -31.63368,-80.50477 -63.29998,-160.99674 -94.9375,-241.5 -13.71875,0 -27.4375,0 -41.15625,0 l -0.37139,0.92848 -0.12861,0.32152 z m 21.6875,74.5625 c 6.1765,17.6108 13.05734,34.97031 19.625,52.4375 -13.45833,0 -26.91667,0 -40.375,0 6.6183,-18.20496 13.70339,-36.24441 20,-54.5625 0.25,0.70833 0.5,1.41667 0.75,2.125 z"
         id="path3034"
         inkscape:connector-curvature="0" />
      <path
         style="font-size:320.10992432px;font-style:normal;font-variant:normal;font-weight:normal;font-stretch:normal;line-height:125%;letter-spacing:-55.78796005px;word-spacing:0px;fill:#ffffff;fill-opacity:1;stroke:none;font-family:Droid Sans;-inkscape-font-specification:Droid Sans"
         d="m 275.5625,611.875 c -15.42969,0.3426 -30.85169,5.40528 -42.90625,15.0625 0.10958,-5.85978 -3.44256,-13.43156 -10.46875,-12.03125 -11.39583,0 -22.79167,0 -34.1875,0 0,86.625 0,173.25 0,259.875 16.54167,0 33.08333,0 49.625,0 -0.5326,-27.49775 0.29314,-55.00224 -0.21875,-82.5 32.53326,21.06058 82.38572,12.71851 102.6395,-21.45124 18.0419,-28.84317 18.82881,-65.54161 12.048,-98.14251 -5.98332,-25.02184 -22.85858,-49.16935 -48.21875,-56.875 -9.08871,-3.01388 -18.73414,-4.23736 -28.3125,-3.9375 z m -0.625,42.71875 c 14.70825,-0.48932 26.58133,12.69498 27.78125,26.75 4.72878,22.07188 4.12978,46.24942 -5.5,66.90625 -6.05164,10.22377 -18.30281,14.20289 -29.59375,12.59375 -12.50948,-0.73548 -24.87934,-9.74981 -26.58325,-22.5564 -5.67871,-21.1058 -4.41144,-43.67243 0.2395,-64.8186 3.77458,-10.96876 14.40096,-19.17101 26.21875,-18.59375 2.47179,-0.19489 4.95981,-0.19516 7.4375,-0.28125 z"
         id="path3036"
         inkscape:connector-curvature="0" />
      <path
         style="font-size:320.10992432px;font-style:normal;font-variant:normal;font-weight:normal;font-stretch:normal;line-height:125%;letter-spacing:-55.78796005px;word-spacing:0px;fill:#ffffff;fill-opacity:1;stroke:none;font-family:Droid Sans;-inkscape-font-specification:Droid Sans"
         d="m 412.65625,611.875 c -15.62931,0.21343 -31.25726,5.2762 -43.46875,15.03125 0.0905,-5.85929 -3.46056,-13.39827 -10.46875,-12 -11.39583,0 -22.79167,0 -34.1875,0 0,86.625 0,173.25 0,259.875 16.54167,0 33.08333,0 49.625,0 -0.81277,-27.52591 0.59241,-55.0692 -0.40625,-82.59375 32.39912,21.08184 82.19465,12.91189 102.63874,-20.93219 18.19495,-29.19225 19.11336,-66.17899 12.14251,-99.03656 -6.24859,-25.40513 -23.61105,-49.63685 -49.6875,-56.90625 -8.45957,-2.60005 -17.32131,-3.65674 -26.1875,-3.4375 z m -1.25,42.71875 c 14.61913,-0.59106 26.75713,12.77778 27.84375,26.78125 4.76659,21.93862 3.98601,45.87597 -5.1875,66.40625 -5.81883,10.11057 -18.04095,14.72705 -29.375,13.125 -12.85484,-0.51532 -25.69177,-9.90923 -27.28125,-23.125 -5.45975,-20.97137 -4.24681,-43.59767 0.5,-64.4375 3.69493,-11.05918 14.5151,-19.09864 26.40358,-18.47923 2.36,-0.18014 4.73097,-0.2015 7.09642,-0.27077 z"
         id="path3038"
         inkscape:connector-curvature="0" />
      <path
         style="font-size:162.27224731px;font-style:normal;font-weight:normal;line-height:125%;letter-spacing:-21.32561493px;word-spacing:0px;fill:#ffffff;fill-opacity:1;stroke:none;font-family:Sans"
         d="m 74.4375,797.21875 c -7.745358,-0.0779 -15.339505,2.44025 -22.1875,5.59375 -6.303638,-5.59139 -15.852114,-4.24939 -23.46875,-3.0625 -7.421278,2.28015 -10.767057,10.75271 -8.803617,17.90498 1.068845,29.12625 -0.149834,58.274 0.428617,87.40752 11.59375,0 23.1875,0 34.78125,0 2.21654,-22.81847 -2.67332,-46.27004 2.53125,-68.6875 4.559579,-7.37427 17.383718,-10.32528 22.75,-2.5 3.711899,11.89748 0.896363,24.61952 1.90625,36.875 0.102286,9.98737 -1.995764,20.98612 2.25,30.28125 6.36059,7.25372 17.03863,3.18857 25.1875,3.71875 8.74613,-2.76175 8.64909,-13.71282 7.28026,-21.12448 -0.79946,-22.35881 4.22723,-46.49715 -5.68651,-67.37552 -7.4907,-12.68665 -22.34864,-19.96992 -36.96875,-19.03125 z"
         id="path3027"
         inkscape:connector-curvature="0" />
      <path
         style="font-size:162.27224731px;font-style:normal;font-weight:normal;line-height:125%;letter-spacing:-21.32561493px;word-spacing:0px;fill:#ffffff;fill-opacity:1;stroke:none;font-family:Sans"
         d="m 105.5625,768.0625 c 0,45.66667 0,91.33333 0,137 11.69792,0 23.39583,0 35.09375,0 0,-46.33333 0,-92.66667 0,-139 -11.69792,0 -23.39583,0 -35.09375,0 l 0,1 0,1 z"
         id="path3029"
         inkscape:connector-curvature="0" />
      <path
         style="font-size:162.27224731px;font-style:normal;font-weight:normal;line-height:125%;letter-spacing:-21.32561493px;word-spacing:0px;fill:#ffffff;fill-opacity:1;stroke:none;font-family:Sans"
         d="m 153.3125,774.78125 c -7.06259,2.00775 -16.91773,-3.28388 -21.9375,4 -3.91315,6.22118 -0.1042,14.15302 -1.75,20.5 -7.87092,0.28617 -12.96844,8.49833 -11.5625,15.90625 -1.11898,7.40695 4.66459,15.29009 12.125,15.5 -0.0616,16.19309 -2.05614,32.85496 1.125,48.875 1.30607,10.0427 7.9727,18.93644 17.625,22.25 17.31208,6.41796 36.20083,1.45945 54.14907,3.83041 2.79258,-0.1997 -3.85405,-3.18132 -5.18032,-5.26791 -4.86541,-7.30854 2.0352,-18.33355 -5.5625,-24.59375 -7.61627,-6.17043 -18.66941,0.42345 -26.625,-3.65625 -2.13414,-13.91088 0.47622,-28.668 -0.84375,-42.40625 12.35683,1.47148 25.33974,0.2026 37.9375,0.625 -5.03458,-2.94666 -7.97471,-8.28344 -6.625,-14.125 1.16877,-6.39483 -0.67824,-14.99633 -8.21875,-16.1875 -7.50359,-2.48994 -16.28015,0.8601 -23.3125,-1.03125 0.12801,-7.25803 3.85141,-17.42564 -3.71875,-22.3125 -2.277,-1.37378 -4.92664,-2.19376 -7.625,-1.90625 z"
         id="path3031"
         inkscape:connector-curvature="0" />
      <path
         style="font-size:134.09732056px;font-style:normal;font-weight:normal;line-height:125%;letter-spacing:-17.62290001px;word-spacing:0px;fill:#ffffff;fill-opacity:1;stroke:none;font-family:Sans"
         d="m 242.9375,911.6875 c -10.15698,3.00457 -22.61667,-2.36498 -31.21875,5.59375 -1.65352,25.29677 2.5425,51.11031 -2.28125,76.0625 -5.38262,7.51925 -18.89543,7.26735 -25.125,0.875 -4.31663,-8.00399 -1.90793,-17.84633 -2.875,-26.65625 0.26121,-16.40372 0.26001,-32.96245 0.3125,-49.25 -0.37832,-5.14132 -5.98328,-6.96183 -10.375,-5.5625 -7.9945,-0.0368 -17.502,-1.50312 -23.6875,4.84375 1.80822,28.27472 -3.4856,57.2511 3.46875,85.00005 7.01207,17.9232 26.90159,27.5279 45.5625,26.5 19.75922,0.7635 41.89976,-10.3341 46.3125,-30.9688 5.24138,-20.78245 0.67151,-42.3906 2.28125,-63.53125 0,-7.78125 0,-15.5625 0,-23.34375 -0.79167,0.14583 -1.58333,0.29167 -2.375,0.4375 z"
         id="path3014"
         inkscape:connector-curvature="0" />
      <path
         style="font-size:134.09732056px;font-style:normal;font-weight:normal;line-height:125%;letter-spacing:-17.62290001px;word-spacing:0px;fill:#ffffff;fill-opacity:1;stroke:none;font-family:Sans"
         d="m 264.3125,911.96875 c -10.36912,2.43264 -22.83129,-2.62069 -31.46875,5.46875 0,37.23958 0,74.47917 0,111.7187 10.59385,-5.2209 24.49213,2.1128 33.6875,-6.8437 0,-36.86458 0,-73.72917 0,-110.59375 -0.73958,0.0833 -1.47917,0.16667 -2.21875,0.25 z"
         id="path3016"
         inkscape:connector-curvature="0" />
      <path
         style="font-size:134.09732056px;font-style:normal;font-weight:normal;line-height:125%;letter-spacing:-23.10000038px;word-spacing:0px;fill:#ffffff;fill-opacity:1;stroke:none;font-family:Sans"
         d="m 310.96875,914.90625 c -8.59236,3.75707 -19.5276,-2.42899 -26.9375,4.5 -5.25119,4.14113 -2.25338,11.73549 -3.59375,16.84375 -9.77887,3.28981 -12.28275,17.11974 -7.03125,25.0625 1.8995,2.23404 4.66685,3.6246 7.5,4.21875 0.95795,17.01651 -4.13417,36.52295 6.4375,51.40625 9.44634,11.4304 25.84348,10.1643 39.21875,10.3437 6.0091,1.4453 14.44899,-2.4317 12.53125,-9.7187 0.56131,-7.0054 0.99036,-17.1008 -7.25,-19.78125 -5.84883,-2.17698 -12.13136,0.85638 -18.0625,-0.65625 -1.52214,-10.50468 0.19635,-21.26545 -0.3125,-31.875 10.53696,0.54438 21.08965,-0.43316 31.625,0.25 -4.90823,-3.09503 -7.03565,-8.54234 -6,-14.125 1.22563,-6.68019 -2.21469,-14.88788 -9.90625,-15.0625 -5.24452,-0.8804 -10.57082,0.145 -15.84375,0.15625 0,-7.34375 0,-14.6875 0,-22.03125 -0.79167,0.15625 -1.58333,0.3125 -2.375,0.46875 z"
         id="path3018"
         inkscape:connector-curvature="0" />
      <path
         style="font-size:134.09732056px;font-style:normal;font-weight:normal;line-height:125%;letter-spacing:-23.10000038px;word-spacing:0px;fill:#ffffff;fill-opacity:1;stroke:none;font-family:Sans"
         d="m 349,934.5625 c -24.51181,0.5466 -45.03722,24.02728 -43.09375,48.34375 -0.27096,21.57745 16.07992,42.55395 37.96875,44.93755 17.8807,3.4368 36.09809,-1.4516 52.40625,-8.625 -6.45708,-6.939 1.55594,-18.3872 -6.09375,-24.81255 5.77448,1.93632 6.38797,-2.5305 6.53125,-7.09375 2.0316,-19.04099 -5.40615,-41.58295 -24.34375,-49.09375 -7.32303,-3.21971 -15.44241,-3.91311 -23.375,-3.65625 z m 4.78125,29.625 c 2.01788,-0.14408 7.22016,1.73001 1.96902,1.18903 -2.42319,-0.0338 -12.61054,0.60318 -5.81277,-0.78278 1.26143,-0.28613 2.56235,-0.29526 3.84375,-0.40625 z m -7.96875,30.28125 c 10.24861,0.2687 20.50036,0.0403 30.75,-0.0312 -9.25909,4.64775 -21.14135,6.85495 -30.78125,2.21875 -1.46866,-1.29739 -5.5272,-3.13085 0.0312,-2.1875 z"
         id="path3020"
         inkscape:connector-curvature="0" />
      <path
         style="font-size:134.09732056px;font-style:normal;font-weight:normal;line-height:125%;letter-spacing:-23.10000038px;word-spacing:0px;fill:#ffffff;fill-opacity:1;stroke:none;font-family:Sans"
         d="m 402.40625,934.59375 c -16.02856,-0.0476 -33.58054,11.36119 -34.375,28.4375 -1.78157,15.85406 12.08304,29.95589 27.21875,31.71875 5.12814,1.33065 11.9999,1.01495 15.90625,3.9375 -17.51741,2.9466 -33.37844,-6.94996 -48.06724,-15.06828 -4.4458,-2.79738 1.84907,4.46942 2.59849,6.84953 4.67013,9.86515 -1.98535,22.69285 5.46875,31.53125 6.00499,4.4749 14.13447,4.2198 21.1767,6.0528 17.40356,2.7342 38.84845,-0.024 49.41705,-15.584 9.2499,-15.14201 1.19943,-38.19744 -16.46875,-42.5938 -6.89018,-2.81898 -15.31577,-2.63224 -21.6875,-5.40625 14.97686,-1.91383 28.88137,5.57463 40.93539,13.70848 7.41038,5.14567 2.85623,-1.71914 0.34586,-5.42723 -4.50148,-6.38302 -3.2475,-14.47494 -3.0625,-21.875 -0.13697,-6.84234 -5.1371,-13.32074 -12.25,-13.59375 -8.82015,-2.43694 -18.02204,-2.87658 -27.15625,-2.6875 z"
         id="path3022"
         inkscape:connector-curvature="0" />
      <path
         style="font-size:134.09732056px;font-style:normal;font-weight:normal;line-height:125%;letter-spacing:-23.10000038px;word-spacing:0px;fill:#ffffff;fill-opacity:1;stroke:none;font-family:Sans"
         d="m 451.625,914.90625 c -8.59236,3.75707 -19.5276,-2.42899 -26.9375,4.5 -5.25119,4.14113 -2.25338,11.73549 -3.59375,16.84375 -9.90693,3.35469 -12.37581,17.50585 -6.78125,25.375 1.87083,2.10583 4.56002,3.49207 7.34375,3.84375 0.62241,17.4587 -4.2756,37.68825 7.25,52.59375 10.62594,11.048 27.40289,8.57 41.28125,9.4687 5.20487,0.3554 11.36704,-4.2621 9.5,-9.9374 1.63868,-7.7096 -0.0995,-19.08655 -9.40625,-20.5313 -5.26401,-0.88098 -10.69916,1.62423 -15.84375,0 -1.30732,-10.49375 -0.0914,-21.06441 -0.21875,-31.59375 7.92555,-0.16544 16.29424,0.27545 23.9375,-0.65625 4.96045,-3.15178 -0.1987,-8.77283 1.875,-13 1.35507,-7.57734 -3.95827,-17.15087 -12.62487,-15.70363 -4.47094,-0.1041 -8.9369,0.19389 -13.40638,0.23488 0,-7.30208 0,-14.60417 0,-21.90625 -0.79167,0.15625 -1.58333,0.3125 -2.375,0.46875 z"
         id="path3024"
         inkscape:connector-curvature="0" />
    </g>
    <text
       transform="scale(1.0360431,0.96521081)"
       sodipodi:linespacing="125%"
       id="text2999"
       y="820.9165"
       x="16.357841"
       style="font-size:338.93121338px;font-style:normal;font-weight:normal;line-height:125%;letter-spacing:-0.06177186px;word-spacing:0px;fill:#000000;fill-opacity:1;stroke:none;font-family:Sans"
       xml:space="preserve"><tspan
         style="font-style:normal;font-variant:normal;font-weight:normal;font-stretch:normal;letter-spacing:-59.06808853px;font-family:Droid Sans;-inkscape-font-specification:Droid Sans"
         y="820.9165"
         x="16.357841"
         id="tspan3001"
         sodipodi:role="line">App</tspan></text>
    <text
       transform="scale(1.0360431,0.96521081)"
       xml:space="preserve"
       style="font-size:171.81326294px;font-style:normal;font-weight:normal;line-height:125%;letter-spacing:0px;word-spacing:0px;fill:#000000;fill-opacity:1;stroke:none;font-family:Sans"
       x="5.0144677"
       y="935.55939"
       id="text3003"
       sodipodi:linespacing="125%"><tspan
         style="letter-spacing:-22.57948303px"
         sodipodi:role="line"
         id="tspan3005"
         x="5.0144677"
         y="935.55939">nit</tspan></text>
    <text
       transform="scale(1.0360431,0.96521081)"
       sodipodi:linespacing="125%"
       id="text3007"
       y="1069.3965"
       x="138.50275"
       style="font-size:141.98175049px;font-style:normal;font-weight:normal;line-height:125%;letter-spacing:0px;word-spacing:0px;fill:#000000;fill-opacity:1;stroke:none;font-family:Sans"
       xml:space="preserve"><tspan
         y="1069.3965"
         x="138.50275"
         id="tspan3009"
         sodipodi:role="line"
         style="letter-spacing:-18.65906143px">UI <tspan
   id="tspan3011"
   style="letter-spacing:-24.45819664px">test</tspan></tspan></text>
  </g>
</svg>
